<svg width="49" height="25" viewBox="0 0 49 25" fill="none" xmlns="http://www.w3.org/2000/svg">
<path d="M10.1043 11.9998H8.29834L8.04634 7.9538C7.96234 6.50713 7.92034 5.35913 7.92034 4.5098V4.0058L6.15634 10.9498H4.40634L2.53034 3.9918C2.549 4.6078 2.55834 5.07446 2.55834 5.3918C2.55834 6.24113 2.53034 7.1138 2.47434 8.0098L2.23634 11.9998H0.444336L1.21434 2.3258H3.59434L5.31634 9.1018L6.94034 2.3258H9.34834L10.1043 11.9998Z" fill="#22C55E"/>
<path d="M17.3035 10.0398C17.3035 10.3291 17.3455 10.5438 17.4295 10.6838C17.5228 10.8145 17.6675 10.9171 17.8635 10.9918L17.4855 12.1818C17.0655 12.1445 16.7202 12.0418 16.4495 11.8738C16.1882 11.7058 15.9875 11.4491 15.8475 11.1038C15.5955 11.4771 15.2782 11.7571 14.8955 11.9438C14.5222 12.1211 14.1022 12.2098 13.6355 12.2098C12.8982 12.2098 12.3148 11.9998 11.8855 11.5798C11.4562 11.1598 11.2415 10.6091 11.2415 9.9278C11.2415 9.12513 11.5308 8.5138 12.1095 8.0938C12.6975 7.66446 13.5328 7.4498 14.6155 7.4498H15.5395V7.0298C15.5395 6.5538 15.4275 6.22246 15.2035 6.0358C14.9888 5.8398 14.6388 5.7418 14.1535 5.7418C13.6122 5.7418 12.9588 5.87246 12.1935 6.1338L11.7735 4.9158C12.6975 4.56113 13.5935 4.3838 14.4615 4.3838C16.3562 4.3838 17.3035 5.23313 17.3035 6.9318V10.0398ZM14.1115 10.9078C14.7182 10.9078 15.1942 10.6045 15.5395 9.9978V8.4998H14.7975C13.6402 8.4998 13.0615 8.92913 13.0615 9.7878C13.0615 10.1425 13.1502 10.4178 13.3275 10.6138C13.5048 10.8098 13.7662 10.9078 14.1115 10.9078Z" fill="#22C55E"/>
<path d="M23.7141 11.6498C23.4528 11.8365 23.1588 11.9765 22.8321 12.0698C22.5148 12.1631 22.1881 12.2098 21.8521 12.2098C21.1241 12.2005 20.5688 11.9951 20.1861 11.5938C19.8128 11.1831 19.6261 10.5811 19.6261 9.7878V5.8818H18.4641V4.5938H19.6261V2.9558L21.4181 2.7458V4.5938H23.1401L22.9581 5.8818H21.4181V9.7458C21.4181 10.1098 21.4788 10.3711 21.6001 10.5298C21.7308 10.6885 21.9314 10.7678 22.2021 10.7678C22.4728 10.7678 22.7668 10.6791 23.0841 10.5018L23.7141 11.6498Z" fill="#22C55E"/>
<path d="M28.6701 4.3838C29.3234 4.3838 29.8368 4.58446 30.2101 4.9858C30.5834 5.38713 30.7701 5.9378 30.7701 6.6378V11.9998H28.9781V6.9178C28.9781 6.47913 28.8988 6.17113 28.7401 5.9938C28.5908 5.81646 28.3668 5.7278 28.0681 5.7278C27.7694 5.7278 27.4941 5.8258 27.2421 6.0218C26.9901 6.20846 26.7474 6.47913 26.5141 6.8338V11.9998H24.7221V1.6398L26.5141 1.4578V5.4758C27.1114 4.7478 27.8301 4.3838 28.6701 4.3838Z" fill="#22C55E"/>
<path d="M34.6069 12.2098C34.0375 12.2098 33.5895 12.0465 33.2629 11.7198C32.9455 11.3838 32.7868 10.9125 32.7868 10.3058V1.6258L34.5788 1.4298V10.2498C34.5788 10.5951 34.7189 10.7678 34.9989 10.7678C35.1389 10.7678 35.2788 10.7445 35.4188 10.6978L35.7969 11.9578C35.4235 12.1258 35.0269 12.2098 34.6069 12.2098Z" fill="#22C55E"/>
<path d="M38.7778 4.5938V11.9998H36.9858V4.5938H38.7778ZM37.8678 0.841797C38.2038 0.841797 38.4744 0.94913 38.6798 1.1638C38.8944 1.36913 39.0018 1.6258 39.0018 1.9338C39.0018 2.2418 38.8944 2.49846 38.6798 2.7038C38.4744 2.90913 38.2038 3.0118 37.8678 3.0118C37.5411 3.0118 37.2704 2.90913 37.0558 2.7038C36.8504 2.49846 36.7478 2.2418 36.7478 1.9338C36.7478 1.6258 36.8504 1.36913 37.0558 1.1638C37.2704 0.94913 37.5411 0.841797 37.8678 0.841797Z" fill="#22C55E"/>
<path d="M44.7729 4.3838C45.6316 4.3838 46.3036 4.72913 46.7889 5.4198C47.2743 6.10113 47.5169 7.0578 47.5169 8.2898C47.5169 9.05513 47.3956 9.73646 47.1529 10.3338C46.9196 10.9218 46.5836 11.3838 46.1449 11.7198C45.7063 12.0465 45.1883 12.2098 44.5909 12.2098C44.1896 12.2098 43.8209 12.1258 43.4849 11.9578C43.1583 11.7898 42.8736 11.5518 42.6309 11.2438L42.5189 11.9998H40.9369V1.6258L42.7289 1.4298V5.4338C42.9716 5.0978 43.2656 4.84113 43.6109 4.6638C43.9656 4.47713 44.3529 4.3838 44.7729 4.3838ZM44.1009 10.8658C44.5863 10.8658 44.9643 10.6605 45.2349 10.2498C45.5056 9.8298 45.6409 9.17646 45.6409 8.2898C45.6409 7.35646 45.5149 6.69846 45.2629 6.3158C45.0109 5.9238 44.6563 5.7278 44.1989 5.7278C43.6296 5.7278 43.1396 6.0638 42.7289 6.7358V10.0118C42.8876 10.2825 43.0836 10.4925 43.3169 10.6418C43.5596 10.7911 43.8209 10.8658 44.1009 10.8658Z" fill="#22C55E"/>
<path d="M2.67549 15.7318V23.9998H1.53549V15.7318H2.67549Z" fill="#22C55E"/>
<path d="M7.99055 17.5318C8.56655 17.5318 9.01455 17.7038 9.33455 18.0478C9.66255 18.3918 9.82656 18.8638 9.82656 19.4638V23.9998H8.72256V19.6198C8.72256 19.1718 8.63855 18.8558 8.47055 18.6718C8.30255 18.4878 8.05455 18.3958 7.72655 18.3958C7.39055 18.3958 7.09455 18.4918 6.83855 18.6838C6.58255 18.8758 6.34255 19.1518 6.11855 19.5118V23.9998H5.01455V17.6758H5.96255L6.05855 18.6118C6.28255 18.2758 6.55855 18.0118 6.88655 17.8198C7.22255 17.6278 7.59055 17.5318 7.99055 17.5318Z" fill="#22C55E"/>
<path d="M13.1498 17.6758V23.9998H12.0458V17.6758H13.1498ZM12.5858 14.6398C12.8178 14.6398 13.0058 14.7118 13.1498 14.8558C13.2938 14.9998 13.3658 15.1798 13.3658 15.3958C13.3658 15.6118 13.2938 15.7918 13.1498 15.9358C13.0058 16.0718 12.8178 16.1398 12.5858 16.1398C12.3618 16.1398 12.1778 16.0718 12.0338 15.9358C11.8898 15.7918 11.8178 15.6118 11.8178 15.3958C11.8178 15.1798 11.8898 14.9998 12.0338 14.8558C12.1778 14.7118 12.3618 14.6398 12.5858 14.6398Z" fill="#22C55E"/>
<path d="M18.6245 23.7118C18.2085 23.9998 17.7365 24.1438 17.2085 24.1438C16.6725 24.1438 16.2525 23.9918 15.9485 23.6878C15.6525 23.3758 15.5045 22.9278 15.5045 22.3438V18.5278H14.4005V17.6758H15.5045V16.2478L16.6085 16.1158V17.6758H18.1085L17.9885 18.5278H16.6085V22.2958C16.6085 22.6238 16.6645 22.8638 16.7765 23.0158C16.8965 23.1598 17.0925 23.2318 17.3645 23.2318C17.6125 23.2318 17.8925 23.1478 18.2045 22.9798L18.6245 23.7118Z" fill="#22C55E"/>
<path d="M20.8725 17.6758V23.9998H19.7685V17.6758H20.8725ZM20.3085 14.6398C20.5405 14.6398 20.7285 14.7118 20.8725 14.8558C21.0165 14.9998 21.0885 15.1798 21.0885 15.3958C21.0885 15.6118 21.0165 15.7918 20.8725 15.9358C20.7285 16.0718 20.5405 16.1398 20.3085 16.1398C20.0845 16.1398 19.9005 16.0718 19.7565 15.9358C19.6125 15.7918 19.5405 15.6118 19.5405 15.3958C19.5405 15.1798 19.6125 14.9998 19.7565 14.8558C19.9005 14.7118 20.0845 14.6398 20.3085 14.6398Z" fill="#22C55E"/>
<path d="M27.4152 22.5238C27.4152 22.7798 27.4592 22.9718 27.5472 23.0998C27.6352 23.2198 27.7672 23.3118 27.9432 23.3758L27.6912 24.1438C27.3632 24.1038 27.0992 24.0118 26.8992 23.8678C26.6992 23.7238 26.5512 23.4998 26.4552 23.1958C26.0312 23.8278 25.4032 24.1438 24.5712 24.1438C23.9472 24.1438 23.4552 23.9678 23.0952 23.6158C22.7352 23.2638 22.5552 22.8038 22.5552 22.2358C22.5552 21.5638 22.7952 21.0478 23.2752 20.6878C23.7632 20.3278 24.4512 20.1478 25.3392 20.1478H26.3112V19.6798C26.3112 19.2318 26.2032 18.9118 25.9872 18.7198C25.7712 18.5278 25.4392 18.4318 24.9912 18.4318C24.5272 18.4318 23.9592 18.5438 23.2872 18.7678L23.0112 17.9638C23.7952 17.6758 24.5232 17.5318 25.1952 17.5318C25.9392 17.5318 26.4952 17.7158 26.8632 18.0838C27.2312 18.4438 27.4152 18.9598 27.4152 19.6318V22.5238ZM24.8232 23.3158C25.4552 23.3158 25.9512 22.9878 26.3112 22.3318V20.8798H25.4832C24.3152 20.8798 23.7312 21.3118 23.7312 22.1758C23.7312 22.5518 23.8232 22.8358 24.0072 23.0278C24.1912 23.2198 24.4632 23.3158 24.8232 23.3158Z" fill="#22C55E"/>
<path d="M32.8745 23.7118C32.4585 23.9998 31.9865 24.1438 31.4585 24.1438C30.9225 24.1438 30.5025 23.9918 30.1985 23.6878C29.9025 23.3758 29.7545 22.9278 29.7545 22.3438V18.5278H28.6505V17.6758H29.7545V16.2478L30.8585 16.1158V17.6758H32.3585L32.2385 18.5278H30.8585V22.2958C30.8585 22.6238 30.9145 22.8638 31.0265 23.0158C31.1465 23.1598 31.3425 23.2318 31.6145 23.2318C31.8625 23.2318 32.1425 23.1478 32.4545 22.9798L32.8745 23.7118Z" fill="#22C55E"/>
<path d="M35.1225 17.6758V23.9998H34.0185V17.6758H35.1225ZM34.5585 14.6398C34.7905 14.6398 34.9785 14.7118 35.1225 14.8558C35.2665 14.9998 35.3385 15.1798 35.3385 15.3958C35.3385 15.6118 35.2665 15.7918 35.1225 15.9358C34.9785 16.0718 34.7905 16.1398 34.5585 16.1398C34.3345 16.1398 34.1505 16.0718 34.0065 15.9358C33.8625 15.7918 33.7905 15.6118 33.7905 15.3958C33.7905 15.1798 33.8625 14.9998 34.0065 14.8558C34.1505 14.7118 34.3345 14.6398 34.5585 14.6398Z" fill="#22C55E"/>
<path d="M42.0492 17.6758L39.9012 23.9998H38.5692L36.3852 17.6758H37.5852L39.2412 23.0158L40.8852 17.6758H42.0492Z" fill="#22C55E"/>
<path d="M48.0406 20.6518C48.0406 20.8358 48.0326 21.0238 48.0166 21.2158H43.9846C44.0326 21.9118 44.2086 22.4238 44.5126 22.7518C44.8166 23.0798 45.2086 23.2438 45.6886 23.2438C45.9926 23.2438 46.2726 23.1998 46.5286 23.1118C46.7846 23.0238 47.0526 22.8838 47.3326 22.6918L47.8126 23.3518C47.1406 23.8798 46.4046 24.1438 45.6046 24.1438C44.7246 24.1438 44.0366 23.8558 43.5406 23.2798C43.0526 22.7038 42.8086 21.9118 42.8086 20.9038C42.8086 20.2478 42.9126 19.6678 43.1206 19.1638C43.3366 18.6518 43.6406 18.2518 44.0326 17.9638C44.4326 17.6758 44.9006 17.5318 45.4366 17.5318C46.2766 17.5318 46.9206 17.8078 47.3686 18.3598C47.8166 18.9118 48.0406 19.6758 48.0406 20.6518ZM46.9486 20.3278C46.9486 19.7038 46.8246 19.2278 46.5766 18.8998C46.3286 18.5718 45.9566 18.4078 45.4606 18.4078C44.5566 18.4078 44.0646 19.0718 43.9846 20.3998H46.9486V20.3278Z" fill="#22C55E"/>
</svg>
