<svg aria-hidden="true"
    focusable="false"
    data-prefix="fas"
    class="svg-inline--fa"
    role="img"
    xmlns="http://www.w3.org/2000/svg"
    viewBox="0 0 360 400">
  <path fill="currentColor" d="M358.873 340.173C358.873 373.08 334.733 400 305.233 400L53.6402 400C24.1401 400 0 373.08 0 340.173C0 320.028 9.05627 302.115 22.8449 291.265L156.716 171.71C159.207 169.578 162.435 173.016 160.642 175.885L111.535 274.209C110.16 276.958 111.943 280.346 114.772 280.346L305.243 280.346C334.743 280.346 358.873 307.275 358.873 340.173ZM358.873 59.8271C358.873 79.9721 349.817 97.8854 336.028 108.735L202.157 228.29C199.666 230.422 196.438 226.984 198.232 224.115L247.339 125.791C248.714 123.042 246.93 119.654 244.101 119.654L53.6402 119.654C24.1401 119.654 0 92.7346 0 59.8271C0 26.9197 24.1401 0 53.6402 0L305.243 0C334.743 0 358.873 26.9197 358.873 59.8271Z"/>
</svg>
